<svg xmlns="http://www.w3.org/2000/svg" viewBox="0 0 800 520"><defs><linearGradient id="g" x1="0" x2="1"><stop stop-color="#eceeff"/><stop offset="1" stop-color="#f8f9ff"/></linearGradient></defs><rect width="800" height="520" fill="url(#g)"/><rect x="300" y="60" width="200" height="390" rx="24" fill="#1f2539"/><rect x="330" y="92" width="140" height="80" rx="10" fill="#c8d7c2"/><text x="365" y="145" font-family="Arial" font-size="34" font-weight="700" fill="#202c21">420</text><g fill="#f4f5fb"><rect x="332" y="198" width="34" height="38" rx="8"/><rect x="377" y="198" width="34" height="38" rx="8"/><rect x="422" y="198" width="34" height="38" rx="8"/><rect x="332" y="253" width="34" height="38" rx="8"/><rect x="377" y="253" width="34" height="38" rx="8"/><rect x="422" y="253" width="34" height="38" rx="8"/><rect x="332" y="308" width="34" height="38" rx="8"/><rect x="377" y="308" width="34" height="38" rx="8"/><rect x="422" y="308" width="34" height="38" rx="8"/><rect x="332" y="363" width="34" height="38" rx="8"/><rect x="377" y="363" width="34" height="38" rx="8"/><rect x="422" y="363" width="34" height="38" rx="8"/></g></svg>
